<svg xmlns="http://www.w3.org/2000/svg" width="1800" height="500" viewBox="0 0 1800 500"><defs>
  <linearGradient id="bg" x1="0" y1="0" x2="1" y2="1"><stop stop-color="#050810"/><stop offset=".55" stop-color="#071329"/><stop offset="1" stop-color="#03193e"/></linearGradient>
  <linearGradient id="accent"><stop stop-color="#60a5fa"/><stop offset="1" stop-color="#2563eb"/></linearGradient>
  <radialGradient id="glow"><stop stop-color="#2563eb" stop-opacity=".32"/><stop offset=".58" stop-color="#2563eb" stop-opacity=".07"/><stop offset="1" stop-color="#2563eb" stop-opacity="0"/></radialGradient>
  <pattern id="grid" width="54" height="54" patternUnits="userSpaceOnUse"><path d="M54 0H0V54" fill="none" stroke="#fff" stroke-opacity=".035"/></pattern>
  <filter id="shadow" x="-40%" y="-40%" width="180%" height="180%"><feDropShadow dx="0" dy="22" stdDeviation="24" flood-color="#000" flood-opacity=".45"/><feDropShadow dx="0" dy="0" stdDeviation="18" flood-color="#3b82f6" flood-opacity=".13"/></filter>
  <symbol id="sz" viewBox="0 0 1080 1080"><g transform="translate(82 0) skewX(-8)"><g transform="translate(143 292)"><path d="M105 18H432L350 111H138L78 171L138 231H337L438 332L337 433H12L94 340H304L364 280L304 220H105L4 119Z" fill="#f8fafc"/></g><g transform="translate(484 336) scale(.242)"><path d="M1827 862L1827 1697L1 1697L1 1404L1061 344L397 343L1 740L1 1L1826 1L518 1357L1469 1357L1469 1102L1153 1101L1826 428Z" fill="#60a5fa"/></g></g></symbol>
</defs><g transform="translate(10 -5)" opacity="1" filter="url(#shadow)"><svg width="510" height="510" viewBox="0 0 1080 1080"><use href="#sz"/></svg></g><g font-family="DejaVu Sans,Arial,sans-serif"><text x="520" y="292" fill="#f8fafc" font-size="178" font-weight="800" font-style="italic" letter-spacing="8">ZELISKA</text><text x="534" y="357" fill="#60a5fa" font-size="28" font-weight="700" letter-spacing="8">WEB DESIGN &amp; DEVELOPMENT</text></g></svg>